<svg height="512pt" viewBox="0 0 512 512" width="512pt" xmlns="http://www.w3.org/2000/svg">
<path d="m512 256c0 141.386719-114.613281 256-256 256s-256-114.613281-256-256 114.613281-256 256-256 256 114.613281 256 256zm0 0" fill="#f6dd50"/>
<path d="m512 256c0-16.390625-1.558594-32.414062-4.503906-47.949219l-108.710938-108.710937-292.976562 78.460937-2 209.449219 123.09375 123.09375c9.550781 1.082031 19.257812 1.65625 29.097656 1.65625 141.386719 0 256-114.613281 256-256zm0 0" fill="#ffc200"/>
<path d="m103.808594 188.3125h303.65625v198.9375h-303.65625zm0 0" fill="#555a66"/>
<g fill="#333940">
<path d="m255.214844 188.3125h152.25v198.9375h-152.25zm0 0"/>
<path d="m103.808594 188.3125h303.65625v52.6875h-303.65625zm0 0"/>
<path d="m255.214844 188.3125h152.25v52.6875h-152.25zm0 0"/>
</g>
<path d="m374 241h-19l25-52.6875h19zm0 0" fill="#cdd2e1"/>
<path d="m332.96875 241h-19l25-52.6875h19zm0 0" fill="#cdd2e1"/><path d="m291.9375 241h-19l25-52.6875h19zm0 0" fill="#cdd2e1"/>
<path d="m250.902344 241h-19l25-52.6875h19zm0 0" fill="#dce1eb"/>
<path d="m256.902344 188.3125-1.6875 3.5625v40.039062l20.6875-43.601562zm0 0" fill="#cdd2e1"/>
<path d="m209.871094 241h-19l25-52.6875h19zm0 0" fill="#dce1eb"/><path d="m168.839844 241h-19l25-52.6875h19zm0 0" fill="#dce1eb"/>
<path d="m127.808594 241h-19l25-52.6875h19zm0 0" fill="#dce1eb"/>
<path d="m97.359375 136.011719 301.4375-36.683594 6.367187 52.304687-301.441406 36.679688zm0 0" fill="#333940"/>
<path d="m398.785156 99.339844-143.570312 17.46875v53.074218l149.933594-18.242187zm0 0" fill="#333940"/>
<path d="m371.929688 155.683594-18.863282 2.292968 18.457032-55.320312 18.859374-2.292969zm0 0" fill="#cdd2e1"/>
<path d="m331.195312 160.636719-18.859374 2.296875 18.453124-55.320313 18.863282-2.296875zm0 0" fill="#cdd2e1"/>
<path d="m290.464844 165.59375-18.859375 2.292969 18.453125-55.320313 18.863281-2.292968zm0 0" fill="#cdd2e1"/>
<path d="m249.734375 170.550781-18.863281 2.292969 18.457031-55.320312 18.859375-2.296876zm0 0" fill="#dce1eb"/>
<path d="m255.214844 116.808594v37.3125l12.972656-38.894532zm0 0" fill="#cdd2e1"/>
<path d="m209.003906 175.503906-18.863281 2.296875 18.453125-55.324219 18.863281-2.292968zm0 0" fill="#dce1eb"/>
<path d="m168.269531 180.460938-18.859375 2.292968 18.453125-55.320312 18.859375-2.292969zm0 0" fill="#dce1eb"/>
<path d="m127.539062 185.414062-18.859374 2.296876 18.453124-55.320313 18.859376-2.296875zm0 0" fill="#dce1eb"/>
<path d="m268.1875 276.332031h114.144531v22h-114.144531zm0 0" fill="#cdd2e1"/><path d="m268.1875 311h114.144531v22h-114.144531zm0 0" fill="#cdd2e1"/>
</svg>