<svg height="512pt" viewBox="0 0 512 512" width="512pt" xmlns="http://www.w3.org/2000/svg"><path d="M512 256c0 141.387-114.613 256-256 256S0 397.387 0 256 114.613 0 256 0s256 114.613 256 256zm0 0" fill="#f6dd50"/><path d="M512 256c0-16.39-1.559-32.414-4.504-47.95L398.786 99.34 105.808 177.8l-2 209.45 123.093 123.094A258.368 258.368 0 00256 512c141.387 0 256-114.613 256-256zm0 0" fill="#ffc200"/><path d="M103.809 188.313h303.656V387.25H103.809zm0 0" fill="#555a66"/><g fill="#333940"><path d="M255.215 188.313h152.25V387.25h-152.25zm0 0"/><path d="M103.809 188.313h303.656V241H103.809zm0 0"/><path d="M255.215 188.313h152.25V241h-152.25zm0 0"/></g><path d="M374 241h-19l25-52.688h19zm-41.031 0h-19l25-52.688h19zm-41.031 0h-19l25-52.688h19zm0 0" fill="#cdd2e1"/><path d="M250.902 241h-19l25-52.688h19zm0 0" fill="#dce1eb"/><path d="M256.902 188.313l-1.687 3.562v40.04l20.687-43.602zm0 0" fill="#cdd2e1"/><path d="M209.871 241h-19l25-52.688h19zm-41.031 0h-19l25-52.688h19zm-41.031 0h-19l25-52.688h19zm0 0" fill="#dce1eb"/><path d="M97.36 136.012l301.437-36.684 6.367 52.305-301.441 36.68zm0 0" fill="#333940"/><path d="M398.785 99.34l-143.57 17.469v53.074l149.933-18.242zm0 0" fill="#333940"/><path d="M371.93 155.684l-18.864 2.293 18.457-55.32 18.86-2.294zm-40.735 4.953l-18.86 2.297 18.454-55.32 18.863-2.298zm-40.73 4.957l-18.86 2.293 18.454-55.32 18.863-2.294zm0 0" fill="#cdd2e1"/><path d="M249.734 170.55l-18.863 2.294 18.457-55.32 18.86-2.297zm0 0" fill="#dce1eb"/><path d="M255.215 116.809v37.312l12.972-38.894zm0 0" fill="#cdd2e1"/><path d="M209.004 175.504L190.14 177.8l18.453-55.324 18.863-2.293zm-40.734 4.956l-18.86 2.294 18.453-55.32 18.86-2.293zm-40.73 4.954l-18.86 2.297 18.453-55.32 18.86-2.297zm0 0" fill="#dce1eb"/><path d="M268.188 276.332h114.144v22H268.188zm0 34.668h114.144v22H268.188zm0 0" fill="#cdd2e1"/></svg>